<svg xmlns="http://www.w3.org/2000/svg" xmlns:xlink="http://www.w3.org/1999/xlink" viewBox="0 0 153.48 46.23"><defs><style>.cls-1,.cls-2,.cls-3,.cls-4,.cls-5{fill-rule:evenodd;}.cls-1{fill:url(#GradientFill_1);}.cls-2{fill:url(#GradientFill_1-2);}.cls-3{fill:url(#GradientFill_1-3);}.cls-4{fill:url(#GradientFill_1-4);}.cls-5{fill:#fff;}</style><linearGradient id="GradientFill_1" x1="41.85" y1="23.27" x2="0.29" y2="22.93" gradientUnits="userSpaceOnUse"><stop offset="0" stop-color="#c89b32"/><stop offset="0.52" stop-color="#fef3a6"/><stop offset="1" stop-color="#cd9f30"/></linearGradient><linearGradient id="GradientFill_1-2" x1="47.12" y1="23.22" x2="46.36" y2="23.01" xlink:href="#GradientFill_1"/><linearGradient id="GradientFill_1-3" x1="151.79" y1="17.97" x2="55.65" y2="17.89" xlink:href="#GradientFill_1"/><linearGradient id="GradientFill_1-4" x1="151.66" y1="30.11" x2="55.66" y2="30.06" xlink:href="#GradientFill_1"/></defs><g id="Layer_2" data-name="Layer 2"><g id="Layer_1-2" data-name="Layer 1"><path class="cls-1" d="M21,46.23c6.35-4.84,7-5.39,16.62-6.52A1.46,1.46,0,0,0,38.77,39c.4-.57,3.18-3.41,3.18-3.86,0-.82-1.25-1.13-2-1.8-4-3.58-7.48-10.64-2.55-20.2.9-1.75,4.92-2.85,3.88-5.31a11.94,11.94,0,0,0-2-2.5c-.57-.57-1.55-1.64-1.55-1.64C33,4.28,31.29,4.38,24.57,0a4.12,4.12,0,0,1-3,2.4V25.77c-2.16,0-3.49-1-3.54-3.2S18,18.2,18,16c0-3.84,0-10.42,0-15A2.82,2.82,0,0,1,17.37,0L16.23.74c0,5.62-.18,22.13.23,23.43,1.18,3.74,4.79,3.38,7.31,3.38,3.51,0,7.18-.1,10.67,0v8.79H29.89l-4.54-.09c-2.19.17-5.3-2.27-5.75-3.41l11.43,0L31,31.09c-3,0-9.9.35-12.28-.36a8.43,8.43,0,0,1-5.86-6.65c-.19-1.15-.19-13.25-.15-21.33-3.21,1.53-5,1.35-8.44.89,0,0-1,1.07-1.55,1.64a11.88,11.88,0,0,0-2,2.5c-1,2.46,3,3.56,3.88,5.31C9.49,22.65,6,29.71,2,33.29c-.76.67-2,1-2,1.8,0,.45,2.77,3.29,3.18,3.86a1.44,1.44,0,0,0,1.17.76C13.94,40.84,14.63,41.39,21,46.23Z"/><path class="cls-2" d="M46.74,8.17a253.61,253.61,0,0,1,0,29.89C45.91,26.11,46.59,16.53,46.74,8.17Z"/><path class="cls-3" d="M69,23.44H60q-4.34,0-4.34-3.17V12.4h4.72v7.08c0,.53.4.79,1.19.79H69v3.17Zm5.89-7.1c0-.51.4-.77,1.19-.77H80c.27,0,.44,0,.5.1a.69.69,0,0,1,.16.28.6.6,0,0,1-.16.3.84.84,0,0,1-.5.09Zm10.54,3.93H76.11c-.79,0-1.19-.26-1.19-.79h6.2a6,6,0,0,0,3.21-.72,2.43,2.43,0,0,0,1.13-2.18V15.33a2.42,2.42,0,0,0-1.13-2.18,5.91,5.91,0,0,0-3.21-.73H74.54q-4.33,0-4.34,3.15v4.7q0,3.16,4.34,3.17H85.46V20.27Zm5.35,3.17a7.57,7.57,0,0,1-1.6-.15,4.67,4.67,0,0,1-1.15-.39,2.26,2.26,0,0,1-.7-.54,1,1,0,0,1-.23-.57l3.47-3.86-5-5.53h5.25L93.25,15l2.38-2.63h5.25l-5,5.53,5,5.51H95.63l-2.38-2.62-2.44,2.62Zm24.62-7.87h-4.54v7.87h-.39q-4.34,0-4.34-3.17v-4.7h-4.52V12.4h13.79v3.17Zm1.17-3.17v7.87c0,2.11,1.44,3.17,4.34,3.17h.38v-11Zm18.76,11h-8.53q-4.33,0-4.34-3.17V12.4h4.72v7.08c0,.53.4.79,1.19.79h7v3.17Zm5.9-7.1c0-.51.39-.77,1.19-.77h3.85a.8.8,0,0,1,.51.1A.83.83,0,0,1,147,16a.69.69,0,0,1-.16.3.9.9,0,0,1-.51.09Zm10.53,3.93h-9.34c-.8,0-1.19-.26-1.19-.79h6.19a6,6,0,0,0,3.21-.72,2.43,2.43,0,0,0,1.13-2.18V15.33a2.42,2.42,0,0,0-1.13-2.18,5.87,5.87,0,0,0-3.21-.73h-6.58q-4.34,0-4.34,3.15v4.7q0,3.16,4.34,3.17h10.92Z"/><path class="cls-4" d="M59.4,32.87h-2a1,1,0,0,1-.75-.22,1,1,0,0,1-.34-.7V26.66h-.69v5.16a1.62,1.62,0,0,0,1.78,1.7h2v-.65Zm8.89,0h-2a1,1,0,0,1-.75-.22,1.07,1.07,0,0,1-.34-.71V30.36h2.29v-.64H65.24V28.23a1.07,1.07,0,0,1,.34-.71,1,1,0,0,1,.75-.22h2v-.64h-2a1.62,1.62,0,0,0-1.78,1.69v3.48a1.62,1.62,0,0,0,1.78,1.69h2v-.64Zm9.32-6.22h-.76l-3.06,6.86h.87l1-2.32H78.8l1,2.32h.75l-2.91-6.86Zm-1.7,3.93,1.34-3.14,1.31,3.14ZM88.15,27.3H89.7v-.64H85.91v.64h1.55v6.22h.69V27.3Zm11.77-.64h-.66v3.06H95.77V26.66H95.1v6.86h.67V30.36h3.49v3.16h.66V26.66Zm9.42,6.22h-2a1,1,0,0,1-.75-.22,1.07,1.07,0,0,1-.34-.71V30.36h2.29v-.64h-2.29V28.23a1.07,1.07,0,0,1,.34-.71,1,1,0,0,1,.75-.22h2v-.64h-2a1.61,1.61,0,0,0-1.77,1.69v3.48a1.61,1.61,0,0,0,1.77,1.69h2v-.64ZM117.25,31l.2,0a2,2,0,0,0,1.3-.65,2.14,2.14,0,0,0,.54-1.39,2.06,2.06,0,0,0-.66-1.61,2.61,2.61,0,0,0-1.82-.63h-2.19v6.86h.71V27.3h1.53a1.76,1.76,0,0,1,1.24.44,1.51,1.51,0,0,1,0,2.21,2.08,2.08,0,0,1-1.43.46H116l2.31,3.11h.85L117.25,31Zm15.8,1.91h-2a1,1,0,0,1-.75-.22A1,1,0,0,1,130,32V26.66h-.69v5.16a1.62,1.62,0,0,0,1.78,1.7h2v-.65Zm8.9,0h-2a1.06,1.06,0,0,1-.76-.22,1,1,0,0,1-.34-.7V26.66h-.68v5.16a1.62,1.62,0,0,0,1.78,1.7h2v-.65Zm5.87-2.08h1.7a2.12,2.12,0,0,0,1.5-.57,1.85,1.85,0,0,0,.64-1.41,1.93,1.93,0,0,0-.66-1.53,2.43,2.43,0,0,0-1.69-.62h-2.2v6.86h.71V30.79Zm0-.62V27.3h1.52a1.69,1.69,0,0,1,1.11.39,1.25,1.25,0,0,1,.51,1,1.31,1.31,0,0,1-.46,1.11,1.57,1.57,0,0,1-1.11.41Z"/><path class="cls-5" d="M86.43,36.8a.82.82,0,0,1,.36-.07.51.51,0,0,0,.21,0,.46.46,0,0,1,.22.07,2.64,2.64,0,0,1,.29.25.55.55,0,0,1,.18.33.44.44,0,0,1-.09.3c-.07.1-.18.08-.33,0a.88.88,0,0,0-.59-.2,1.41,1.41,0,0,0-.84.38,4.19,4.19,0,0,0-.77.81,6,6,0,0,0-.47.71,1.33,1.33,0,0,0-.15.65,1,1,0,0,0,.2.62.88.88,0,0,0,.45.33l.63.12c.25,0,.38,0,.39-.07a1.8,1.8,0,0,1,.17-.42c.1-.19.19-.25.27-.19a.48.48,0,0,1,.17.21c0,.09.08.12.16.1a.77.77,0,0,0,.33-.23,1.64,1.64,0,0,0,.36-.47,2.08,2.08,0,0,0,.2-.65,1.25,1.25,0,0,0,0-.68c-.07-.19-.14-.3-.21-.31a.63.63,0,0,0-.27,0,.51.51,0,0,0-.2.06,1,1,0,0,1-.27,0c-.16,0-.2-.06-.13-.17a.5.5,0,0,1,.24-.21,1.61,1.61,0,0,1,.41-.1,1.12,1.12,0,0,1,.52,0,.87.87,0,0,1,.42.3,1.19,1.19,0,0,1,.19.65,2.39,2.39,0,0,1-.07.74,2.17,2.17,0,0,1-.21.56,2.65,2.65,0,0,1-.31.46,2.4,2.4,0,0,1-.65.49c-.31.18-.48.31-.5.4a1.23,1.23,0,0,0,0,.36c0,.15,0,.32,0,.51a.84.84,0,0,1,0,.39.2.2,0,0,1-.11.16s-.1,0-.17-.1a.91.91,0,0,1-.14-.25,1.28,1.28,0,0,0-.11-.2,1.41,1.41,0,0,1-.07-.45c0-.23-.1-.34-.25-.31a2.25,2.25,0,0,1-.52,0,2.67,2.67,0,0,1-.54-.13,2.22,2.22,0,0,1-.35-.15,2.14,2.14,0,0,1-.33-.34,1.73,1.73,0,0,1-.33-.68,1.44,1.44,0,0,1,0-.82,4.16,4.16,0,0,1,.42-.89,3.57,3.57,0,0,1,.52-.69c.15-.15.31-.31.5-.48a3.14,3.14,0,0,1,.62-.44,5.18,5.18,0,0,1,.6-.29Zm4.38,2.74a5.27,5.27,0,0,0-.71.65,3,3,0,0,1-.83.67c-.15,0-.15-.13,0-.51s.26-.62.29-.71a.4.4,0,0,0,0-.24.19.19,0,0,0-.13-.13.33.33,0,0,0-.22,0,.47.47,0,0,0-.25.18c-.09.11-.25.11-.49,0s-.29-.1-.19,0a1.19,1.19,0,0,0,.47.14c.22,0,.25.19.12.52s-.23.59-.29.78a1,1,0,0,0,0,.42.31.31,0,0,0,.14.22.35.35,0,0,0,.25,0l.26-.06a1.73,1.73,0,0,0,.36-.2,3.08,3.08,0,0,0,.44-.37,3.92,3.92,0,0,0,.35-.38c.09-.11.13-.12.12,0a2.15,2.15,0,0,1-.06.37.65.65,0,0,0,0,.37.74.74,0,0,0,.17.25.5.5,0,0,0,.28.14.6.6,0,0,0,.3,0,.9.9,0,0,0,.3-.25c.12-.12.24-.27.37-.43s.12-.15,0,0a1.06,1.06,0,0,1-.49.3.31.31,0,0,1-.31-.09.62.62,0,0,1-.06-.42c0-.2.07-.44.14-.73a1.27,1.27,0,0,0,.07-.49.2.2,0,0,0-.12-.08.36.36,0,0,0-.21,0Zm2.5-.47a.92.92,0,0,1,.29,0,.57.57,0,0,1,.25.1.63.63,0,0,1,.17.29c.06.14,0,.23-.07.28a.24.24,0,0,1-.29,0,.22.22,0,0,0-.27,0l-.28.15a1.81,1.81,0,0,0-.34.24,2.77,2.77,0,0,0-.42.42,2.64,2.64,0,0,0-.24.32c0,.05,0,0,.11,0l.41-.27a5.21,5.21,0,0,1,.69-.38c.27-.12.45-.17.52-.14a.34.34,0,0,1,.19.15.62.62,0,0,1,.09.19.17.17,0,0,1,0,.14.82.82,0,0,0-.08.21A.53.53,0,0,0,94,41a.47.47,0,0,0,.14.22.31.31,0,0,0,.24,0,.85.85,0,0,0,.38-.23c.15-.14.14-.11,0,.09a1.54,1.54,0,0,1-.39.39.49.49,0,0,1-.22.08.64.64,0,0,1-.2,0,1,1,0,0,1-.24-.15.64.64,0,0,1-.18-.25l-.09-.22a.39.39,0,0,0-.1-.15.17.17,0,0,0-.2,0,2.53,2.53,0,0,0-.42.26,3.55,3.55,0,0,1-.55.35,1.94,1.94,0,0,1-.46.2.73.73,0,0,1-.26,0s-.08-.05-.13-.12a.57.57,0,0,1-.08-.24.63.63,0,0,1,0-.27,4.16,4.16,0,0,1,.37-.53,4.85,4.85,0,0,1,.6-.65,3.27,3.27,0,0,1,.62-.43,3.33,3.33,0,0,1,.45-.22Zm2.84-1.65a8.25,8.25,0,0,0-.43.79,10.52,10.52,0,0,0-.54,1.36,9.49,9.49,0,0,0-.39,1.33,1,1,0,0,0,0,.56,1.46,1.46,0,0,0,.18.26.31.31,0,0,0,.29.1,1.14,1.14,0,0,0,.47-.16,2.07,2.07,0,0,0,.46-.35,4.31,4.31,0,0,1,.37-.37l.56-.52q.38-.35.21-.21a9.22,9.22,0,0,1-.88.58,4.89,4.89,0,0,1-.89.49q-.18,0-.24-.06a2.22,2.22,0,0,1,.15-1,9.72,9.72,0,0,1,.72-1.85,5,5,0,0,0,.49-1.1.25.25,0,0,0-.16-.18c-.1,0-.22.06-.38.29Zm2.15-.11a.66.66,0,0,1,.15.44,1.45,1.45,0,0,0,.23.67,2,2,0,0,0,1,.78c.15.06.15.07,0,0a1.31,1.31,0,0,1-.5-.2,2.6,2.6,0,0,1-.52-.46l-.42-.45a.45.45,0,0,0-.18-.16l-.09,0a.58.58,0,0,1-.17-.11.25.25,0,0,1-.1-.26.65.65,0,0,1,.1-.22.38.38,0,0,1,.22-.11.29.29,0,0,1,.28.07ZM97.4,39a.54.54,0,0,1,.28,0q.16,0,.06.33c-.07.19-.15.43-.23.73s-.16.55-.23.74a3.19,3.19,0,0,1-.25.49c-.09.13-.18.21-.26.22a.29.29,0,0,1-.17,0s0-.1,0-.26.08-.4.17-.73.16-.61.24-.85.07-.36,0-.37,0,0,.08-.14A1,1,0,0,1,97.4,39Zm1.9-1.19a.71.71,0,0,0-.12.33c0,.17-.06.3-.07.39s-.07.29-.15.58-.18.44-.28.44a.78.78,0,0,0-.36.11c-.14.07-.21.15-.21.26s0,.16.13.16l.29,0c.1,0,.15,0,.14.08a2.75,2.75,0,0,1-.2.54c-.11.3-.21.55-.28.76s-.07.34,0,.37a.33.33,0,0,0,.22,0,.59.59,0,0,0,.21-.1.6.6,0,0,0,.14-.27l.3-.79c.15-.39.25-.6.32-.62l.38-.11c.19,0,.49-.1.89-.16s.42-.09.06-.08a4.23,4.23,0,0,1-.79,0,1.68,1.68,0,0,1-.35-.09c-.07,0-.07-.17,0-.41l.14-.56a3,3,0,0,1,.12-.33.27.27,0,0,0,0-.23.68.68,0,0,0-.11-.19.27.27,0,0,0-.22-.09.23.23,0,0,0-.21.06Zm2.84,1.66a.24.24,0,0,1,.25-.08.36.36,0,0,1,.21.13.26.26,0,0,1,0,.19,2.94,2.94,0,0,0,0,.35,5.62,5.62,0,0,1,0,.74c0,.32-.07.58-.1.8a3.68,3.68,0,0,1-.24.74,3.36,3.36,0,0,1-.47.79,3,3,0,0,1-.69.64,4.65,4.65,0,0,1-.71.41,2.25,2.25,0,0,1-.49.16,1,1,0,0,1-.35,0,.43.43,0,0,1-.29-.25c-.08-.14,0-.35.12-.63s.19-.29.08,0,0,.39.19.41a1,1,0,0,0,.58-.08,3.57,3.57,0,0,0,.57-.4,3.79,3.79,0,0,0,.49-.46,3.31,3.31,0,0,0,.69-1.43,4.21,4.21,0,0,0,.13-.71c0-.15,0-.24,0-.27s0,0-.11,0a1,1,0,0,0-.2.18l-.23.21-.37.3a.83.83,0,0,1-.42.19.88.88,0,0,1-.33-.06.5.5,0,0,1-.24-.21.69.69,0,0,1-.08-.32.82.82,0,0,1,0-.27q0-.08.15-.54c.09-.3.18-.48.28-.52a.7.7,0,0,1,.23-.06.16.16,0,0,1,.14.1.24.24,0,0,1,0,.23c0,.09-.09.24-.16.46a1.21,1.21,0,0,0-.07.49c0,.12.06.16.16.12a.87.87,0,0,0,.26-.15l.23-.2.38-.51c.19-.25.32-.42.39-.49ZM107,35.81a.23.23,0,0,1,.19,0,.56.56,0,0,1,.27.13c.09.08.08.19,0,.34a5.91,5.91,0,0,0-.38.6,9,9,0,0,0-.51,1,2,2,0,0,0-.25.85.57.57,0,0,0,.67.43l1.25-.06c.6,0,.65,0,.13,0s-.91.09-1.16.13-.35.17-.27.39a3.08,3.08,0,0,1,.15.5,1.14,1.14,0,0,1,0,.37,1.12,1.12,0,0,1-.17.4,1.67,1.67,0,0,1-.32.37.87.87,0,0,1-.33.21.74.74,0,0,1-.39,0,.76.76,0,0,1-.37-.21,1.07,1.07,0,0,1-.22-.48,2.6,2.6,0,0,1-.05-.62,3.71,3.71,0,0,1,.27-1c.17-.45.32-.81.44-1.08s.3-.66.52-1.17.34-.81.38-.88a1.19,1.19,0,0,1,.18-.25Zm-.77,3.88c-.1-.13-.2-.13-.29,0a.92.92,0,0,0-.16.39,2.08,2.08,0,0,0,0,.35.75.75,0,0,0,.1.32.24.24,0,0,0,.23.16.35.35,0,0,0,.26-.13.67.67,0,0,0,.15-.29.58.58,0,0,0,0-.38,1.46,1.46,0,0,0-.24-.41Zm2.65-.65a1.46,1.46,0,0,0-.58.26,2.33,2.33,0,0,0-.39.37,1.74,1.74,0,0,0-.26.47,1.34,1.34,0,0,0-.12.52,1,1,0,0,0,.07.38.78.78,0,0,0,.16.24.79.79,0,0,0,.2.17.85.85,0,0,0,.34.11,1,1,0,0,0,.46-.05,1.68,1.68,0,0,0,.38-.19,4.13,4.13,0,0,0,.36-.29,2.2,2.2,0,0,0,.37-.38c.1-.12.19-.23.25-.32s.06-.09,0,0l-.3.27a2,2,0,0,1-.55.31,4.1,4.1,0,0,1-.54.2,1,1,0,0,1-.29,0,.42.42,0,0,1-.24-.17.48.48,0,0,1-.11-.3.62.62,0,0,1,.11-.32s0,0,0,0l.09,0h.13a.72.72,0,0,0,.19,0,3.32,3.32,0,0,0,.58-.33.52.52,0,0,0,.22-.41.76.76,0,0,0-.07-.39c-.06-.11-.21-.15-.46-.13Zm0,.51s-.09,0-.19,0a.62.62,0,0,0-.23.18c0,.06,0,.11,0,.14s.09,0,.19,0a.91.91,0,0,0,.23-.16c.06-.06.07-.11,0-.16Zm3.19-.06a.25.25,0,0,1,.25-.08.36.36,0,0,1,.21.13.22.22,0,0,1,0,.19,1.93,1.93,0,0,0,0,.35,6,6,0,0,1,0,.74c0,.32-.07.58-.1.8a3.06,3.06,0,0,1-.23.74,3.41,3.41,0,0,1-.48.79,2.81,2.81,0,0,1-.69.64,4.61,4.61,0,0,1-.7.41,2.43,2.43,0,0,1-.49.16,1.09,1.09,0,0,1-.36,0,.45.45,0,0,1-.29-.25q-.12-.21.12-.63c.16-.27.19-.29.08,0s0,.39.19.41a1,1,0,0,0,.59-.08,3.55,3.55,0,0,0,.56-.4,4,4,0,0,0,.5-.46,3.65,3.65,0,0,0,.69-1.43,5.16,5.16,0,0,0,.12-.71,1.39,1.39,0,0,0,0-.27s0,0-.1,0a.84.84,0,0,0-.21.18l-.22.21-.38.3a.8.8,0,0,1-.42.19,1,1,0,0,1-.33-.06.5.5,0,0,1-.24-.21.68.68,0,0,1-.07-.32,1.47,1.47,0,0,1,0-.27c0-.05.08-.23.16-.54s.17-.48.27-.52a.69.69,0,0,1,.24-.06c.06,0,.1,0,.14.1a.27.27,0,0,1,0,.23,2.29,2.29,0,0,0-.16.46,1.26,1.26,0,0,0-.08.49c0,.12.07.16.16.12a.76.76,0,0,0,.26-.15l.23-.2q.11-.12.39-.51a5.13,5.13,0,0,1,.38-.49Zm1.54-.16a.58.58,0,0,1,.26-.13.54.54,0,0,1,.26,0,.37.37,0,0,1,.17.16c0,.08.16.12.35.11h.7c.28,0,.23,0-.17,0a3.72,3.72,0,0,0-.68,0c-.06,0-.08.09-.07.2s0,.23,0,.35,0,.27,0,.43a2.11,2.11,0,0,1,0,.34c0,.07,0,.15-.08.24a1.64,1.64,0,0,1-.17.26,1.34,1.34,0,0,1-.27.26,2.43,2.43,0,0,1-.3.17.36.36,0,0,1-.29,0,.59.59,0,0,1-.26-.17,1.05,1.05,0,0,1-.15-.24,1.09,1.09,0,0,1-.06-.43,2,2,0,0,1,.07-.5,1.6,1.6,0,0,1,.19-.4c.08-.13.1-.2.07-.19s0,0,0,0a2.7,2.7,0,0,0,.2-.25,3.49,3.49,0,0,1,.27-.31Zm.28.89c-.08-.1-.19-.07-.31.08a1.06,1.06,0,0,0-.22.5.54.54,0,0,0,0,.38.24.24,0,0,0,.13.12.27.27,0,0,0,.2-.09.83.83,0,0,0,.21-.48.59.59,0,0,0,0-.51Zm1.76-1.06a.48.48,0,0,0-.17.13,1,1,0,0,0-.1.15,7.63,7.63,0,0,1-.54.59c-.33.35-.4.43-.21.25a4.11,4.11,0,0,1,.49-.39c.13-.08.15,0,.06.25a6.12,6.12,0,0,0-.21.71c0,.23-.08.39-.1.5a.34.34,0,0,0,.06.28.17.17,0,0,0,.21.07.73.73,0,0,0,.29-.26l.41-.52a2.56,2.56,0,0,1,.56-.49.84.84,0,0,1,.4-.18c.06,0,.1.17.12.49a1.89,1.89,0,0,0,.16.7.41.41,0,0,0,.39.22,1.11,1.11,0,0,0,.64-.35,3.5,3.5,0,0,0,.47-.51.66.66,0,0,0,.13-.25s0,0-.1.1a1.53,1.53,0,0,1-.36.36.91.91,0,0,1-.5.19c-.17,0-.26-.17-.26-.53a1.75,1.75,0,0,0-.14-.77.54.54,0,0,0-.29-.29.7.7,0,0,0-.32,0,1.09,1.09,0,0,0-.25.1,2.93,2.93,0,0,0-.39.3,4,4,0,0,0-.46.45c-.12.15-.11.06,0-.27l.34-.71c.07-.14,0-.24-.08-.29a.36.36,0,0,0-.3,0Zm4.26-3.28a.19.19,0,0,1,.19-.09.36.36,0,0,1,.22.1,1.33,1.33,0,0,1,.21.27,1.79,1.79,0,0,1,.2.7,3.45,3.45,0,0,1,0,1,4.94,4.94,0,0,1-.09.61c0,.09,0,.18.11.28A.39.39,0,0,1,121,39a.28.28,0,0,1-.12.2.24.24,0,0,1-.21.05c-.07,0-.14.09-.23.31a4.62,4.62,0,0,1-.33.67,5.67,5.67,0,0,1-.35.54,2.24,2.24,0,0,1-.43.46,1.08,1.08,0,0,1-.42.27.49.49,0,0,1-.27,0,.45.45,0,0,1-.21-.19,1.2,1.2,0,0,1-.1-.57,1.42,1.42,0,0,1,.24-.82,2.06,2.06,0,0,1,.92-.71c.44-.21.59-.28.45-.23a9.33,9.33,0,0,1-1.59.23c-.92.09-.88.07.13-.06a5.29,5.29,0,0,0,1.65-.36.93.93,0,0,0,.21-.5,3.07,3.07,0,0,0,.07-.65,3.13,3.13,0,0,0,0-.6,1.34,1.34,0,0,0-.27-.6c-.14-.21-.21-.34-.2-.41a.76.76,0,0,1,.09-.18Zm-.38,3.87a1.2,1.2,0,0,0-.35.27,1.32,1.32,0,0,0-.31.42.42.42,0,0,0-.05.31c0,.08.14,0,.34-.19a2.25,2.25,0,0,0,.4-.51.91.91,0,0,0,.09-.28C119.68,39.72,119.64,39.71,119.56,39.75Z"/><path class="cls-5" d="M124.81,37.31a.66.66,0,0,1,.15.44,1.58,1.58,0,0,0,.23.67,1.87,1.87,0,0,0,.5.51,2,2,0,0,0,.51.27c.16.06.15.07,0,0a1.31,1.31,0,0,1-.5-.2,2.6,2.6,0,0,1-.52-.46l-.41-.45a.52.52,0,0,0-.19-.16l-.09,0a.58.58,0,0,1-.17-.11.23.23,0,0,1-.09-.26.5.5,0,0,1,.09-.22.42.42,0,0,1,.22-.11.29.29,0,0,1,.28.07Zm-.9,1.71a1,1,0,0,0-.31.16c-.13.09-.16.14-.09.14s.07.13,0,.37-.16.53-.24.85-.14.57-.17.73,0,.24,0,.26a.29.29,0,0,0,.17,0c.09,0,.17-.09.26-.22a3.19,3.19,0,0,0,.25-.49c.07-.19.15-.44.23-.74s.16-.54.23-.73,0-.3-.06-.33a.54.54,0,0,0-.28,0Zm1.34.16a2.88,2.88,0,0,1-.64.59q-.44.3-.87.66c-.3.24-.11.13.56-.34s1-.65.94-.55-.12.34-.24.72-.21.67-.28.86a.89.89,0,0,0-.09.36c0,.06.08.11.2.15s.2,0,.24,0a.43.43,0,0,0,.11-.12,2.67,2.67,0,0,0,.15-.27,2,2,0,0,1,.43-.52c.22-.22.39-.33.49-.32s.14.09.13.24,0,.29,0,.41,0,.27-.07.4a.56.56,0,0,0,0,.3.24.24,0,0,0,.16.11c.07,0,.14,0,.22-.1a.68.68,0,0,0,.15-.2s.07-.15.16-.31a1.91,1.91,0,0,1,.39-.48l.38-.34a.7.7,0,0,1,.28-.15.21.21,0,0,1,.21.11l.29.4a2.88,2.88,0,0,0,.34.38,1.54,1.54,0,0,0,.28.19.44.44,0,0,0,.32,0,.79.79,0,0,0,.26-.09,1.82,1.82,0,0,1,.33-.15,4,4,0,0,0,.46-.24c.16-.09.1-.06-.18.08a1.11,1.11,0,0,1-.59.19.94.94,0,0,1-.39-.21,2.08,2.08,0,0,1-.42-.56c-.13-.25-.24-.44-.32-.57a.76.76,0,0,0-.3-.27.57.57,0,0,0-.43.05,2.06,2.06,0,0,0-.59.48c-.23.24-.35.35-.37.33s0-.07,0-.18a1.27,1.27,0,0,0-.06-.28.41.41,0,0,0-.22-.21.42.42,0,0,0-.38,0,1.48,1.48,0,0,0-.5.45c-.2.23-.21.19,0-.13a1.33,1.33,0,0,0,.23-.64,1.53,1.53,0,0,0-.06-.25,1.39,1.39,0,0,0-.06-.19.2.2,0,0,0-.18-.12c-.09,0-.21.09-.35.29Zm6.36-.11a.87.87,0,0,1,.28,0,.52.52,0,0,1,.25.1.72.72,0,0,1,.18.29c.06.14,0,.23-.08.28a.25.25,0,0,1-.29,0,.22.22,0,0,0-.27,0l-.28.15a2.81,2.81,0,0,0-.34.24,4.14,4.14,0,0,0-.42.42,1.54,1.54,0,0,0-.23.32c0,.05,0,0,.11,0l.4-.27a6.9,6.9,0,0,1,.69-.38c.28-.12.45-.17.53-.14a.32.32,0,0,1,.18.15.5.5,0,0,1,.1.19.21.21,0,0,1,0,.14.56.56,0,0,0-.08.21.53.53,0,0,0,0,.33.47.47,0,0,0,.15.22.31.31,0,0,0,.24,0,.83.83,0,0,0,.37-.23c.15-.14.14-.11,0,.09a1.74,1.74,0,0,1-.38.39.59.59,0,0,1-.22.08.76.76,0,0,1-.21,0,1.58,1.58,0,0,1-.24-.15.74.74,0,0,1-.17-.25,1,1,0,0,1-.09-.22.44.44,0,0,0-.11-.15.16.16,0,0,0-.2,0A2.58,2.58,0,0,0,131,41a4.09,4.09,0,0,1-.55.35,2.14,2.14,0,0,1-.46.2.79.79,0,0,1-.27,0,.27.27,0,0,1-.12-.12.59.59,0,0,1-.09-.24.84.84,0,0,1,0-.27,3,3,0,0,1,.36-.53,5.61,5.61,0,0,1,.6-.65,3.63,3.63,0,0,1,.62-.43,3.28,3.28,0,0,1,.46-.22Zm3.8.08a.22.22,0,0,1-.28.06,1.21,1.21,0,0,0-.32-.09,1.17,1.17,0,0,0-.39.09,2.93,2.93,0,0,0-.57.33,2,2,0,0,0-.55.65,2.6,2.6,0,0,0-.3.74.5.5,0,0,0,0,.41.49.49,0,0,0,.21.14.67.67,0,0,0,.35,0,2.18,2.18,0,0,0,.59-.35,5.39,5.39,0,0,0,.58-.5c.15-.16.16-.08,0,.24s-.19.52-.23.62-.12.28-.24.53a5.68,5.68,0,0,1-.4.73,3.73,3.73,0,0,1-.38.5,4.62,4.62,0,0,1-.38.35,1.22,1.22,0,0,1-.36.24.42.42,0,0,1-.27,0q-.12,0-.12-.3c0-.18.25-.51.73-1s.45-.45-.09.06-.82.88-.8,1.1a.44.44,0,0,0,.31.44.83.83,0,0,0,.51,0,1.65,1.65,0,0,0,.59-.37,3.34,3.34,0,0,0,.64-.75,7.11,7.11,0,0,0,.4-.67c.09-.16.15-.3.21-.43l.23-.53a5.1,5.1,0,0,0,.22-.66c.06-.21.11-.47.17-.77a2.79,2.79,0,0,1,.18-.63q.09-.18-.33-.21Zm-.6.6c.05,0,0,.09,0,.18a4,4,0,0,1-.36.36,4.75,4.75,0,0,1-.56.41c-.21.12-.26.1-.16-.08a2.66,2.66,0,0,1,.4-.5,2.36,2.36,0,0,1,.43-.35c.13-.08.22-.08.29,0Zm2.88-2.44a.57.57,0,0,1,.15.44,1.47,1.47,0,0,0,.24.67,1.84,1.84,0,0,0,.49.51,2.13,2.13,0,0,0,.51.27c.16.06.16.07,0,0a1.21,1.21,0,0,1-.49-.2,2.62,2.62,0,0,1-.53-.46l-.41-.45a.52.52,0,0,0-.19-.16l-.09,0a.58.58,0,0,1-.17-.11.24.24,0,0,1-.09-.26.5.5,0,0,1,.1-.22.35.35,0,0,1,.21-.11.29.29,0,0,1,.28.07Zm-.9,1.71a1,1,0,0,0-.31.16c-.13.09-.16.14-.09.14s.08.13,0,.37-.15.53-.24.85-.14.57-.17.73,0,.24,0,.26a.29.29,0,0,0,.17,0c.09,0,.17-.09.26-.22a2,2,0,0,0,.25-.49c.07-.19.15-.44.23-.74s.16-.54.23-.73.05-.3,0-.33a.58.58,0,0,0-.29,0Zm1.47.14a.48.48,0,0,0-.17.13l-.1.15a7.63,7.63,0,0,1-.54.59c-.33.35-.39.43-.2.25a4.13,4.13,0,0,1,.48-.39c.13-.08.15,0,.06.25a6.12,6.12,0,0,0-.21.71c-.05.23-.08.39-.1.5a.43.43,0,0,0,.06.28.17.17,0,0,0,.21.07.73.73,0,0,0,.29-.26l.42-.52a2.31,2.31,0,0,1,.55-.49c.21-.13.34-.19.4-.18s.1.17.13.49a1.74,1.74,0,0,0,.15.7.41.41,0,0,0,.39.22,1.11,1.11,0,0,0,.64-.35,4.57,4.57,0,0,0,.48-.51,1.21,1.21,0,0,0,.13-.25s0,0-.11.1a1.36,1.36,0,0,1-.36.36.89.89,0,0,1-.49.19c-.18,0-.27-.17-.27-.53a1.94,1.94,0,0,0-.13-.77.59.59,0,0,0-.3-.29.7.7,0,0,0-.32,0,1.09,1.09,0,0,0-.25.1,2.93,2.93,0,0,0-.39.3,3.18,3.18,0,0,0-.45.45c-.13.15-.11.06,0-.27s.28-.56.34-.71.05-.24-.07-.29a.38.38,0,0,0-.31,0Zm4.42-.09a.87.87,0,0,1,.28,0,.52.52,0,0,1,.25.1.72.72,0,0,1,.18.29c.06.14,0,.23-.08.28a.25.25,0,0,1-.29,0,.22.22,0,0,0-.27,0l-.28.15a2.81,2.81,0,0,0-.34.24,4.14,4.14,0,0,0-.42.42,1.54,1.54,0,0,0-.23.32c0,.05,0,0,.11,0l.4-.27a6.9,6.9,0,0,1,.69-.38c.28-.12.45-.17.53-.14a.37.37,0,0,1,.19.15.62.62,0,0,1,.09.19.21.21,0,0,1,0,.14.82.82,0,0,0-.08.21.53.53,0,0,0,0,.33.47.47,0,0,0,.15.22.31.31,0,0,0,.24,0,.83.83,0,0,0,.37-.23c.15-.14.14-.11,0,.09a1.74,1.74,0,0,1-.38.39.54.54,0,0,1-.22.08.76.76,0,0,1-.21,0,1.58,1.58,0,0,1-.24-.15.74.74,0,0,1-.17-.25,1,1,0,0,1-.09-.22.44.44,0,0,0-.11-.15.16.16,0,0,0-.2,0,3.15,3.15,0,0,0-.41.26,4.09,4.09,0,0,1-.55.35,2.14,2.14,0,0,1-.46.2.76.76,0,0,1-.26,0,.24.24,0,0,1-.13-.12.59.59,0,0,1-.09-.24.84.84,0,0,1,0-.27,3,3,0,0,1,.36-.53,5.61,5.61,0,0,1,.6-.65,4.06,4.06,0,0,1,.62-.43,3.28,3.28,0,0,1,.46-.22Zm2.64-1.24a.71.71,0,0,0-.12.33c0,.17-.06.3-.07.39s-.07.29-.15.58-.18.44-.28.44a.78.78,0,0,0-.36.11c-.14.07-.21.15-.21.26s0,.16.13.16l.29,0c.1,0,.15,0,.14.08a2.75,2.75,0,0,1-.2.54c-.11.3-.21.55-.28.76s-.07.34,0,.37a.33.33,0,0,0,.22,0,.47.47,0,0,0,.2-.1.52.52,0,0,0,.15-.27l.3-.79c.15-.39.25-.6.32-.62l.38-.11c.19,0,.49-.1.89-.16s.42-.09.06-.08a4.23,4.23,0,0,1-.79,0,1.68,1.68,0,0,1-.35-.09c-.07,0-.07-.17,0-.41l.14-.56a3,3,0,0,1,.12-.33.27.27,0,0,0,0-.23.68.68,0,0,0-.11-.19.27.27,0,0,0-.22-.09.23.23,0,0,0-.21.06Zm2.49-.52a.66.66,0,0,1,.15.44,1.58,1.58,0,0,0,.23.67,1.87,1.87,0,0,0,.5.51,2,2,0,0,0,.51.27c.16.06.15.07,0,0a1.31,1.31,0,0,1-.5-.2,2.6,2.6,0,0,1-.52-.46l-.41-.45a.52.52,0,0,0-.19-.16l-.09,0a.58.58,0,0,1-.17-.11.23.23,0,0,1-.09-.26.5.5,0,0,1,.09-.22.42.42,0,0,1,.22-.11.29.29,0,0,1,.28.07Zm-.9,1.71a.54.54,0,0,1,.28,0q.17,0,.06.33c-.07.19-.15.43-.23.73s-.16.55-.23.74a3.19,3.19,0,0,1-.25.49c-.09.13-.17.21-.26.22a.29.29,0,0,1-.17,0s0-.1,0-.26.08-.4.17-.73.16-.61.24-.85.07-.36,0-.37,0,0,.09-.14a1,1,0,0,1,.31-.16Zm1.46.31a3.49,3.49,0,0,0-.27.31l-.19.25s0,0,0,0,0,.06-.07.19a1.6,1.6,0,0,0-.19.4,1.66,1.66,0,0,0-.06.5,1,1,0,0,0,0,.43,1.58,1.58,0,0,0,.15.24.65.65,0,0,0,.26.17.39.39,0,0,0,.3,0l.29-.17a1.34,1.34,0,0,0,.27-.26,1.64,1.64,0,0,0,.17-.26,1.68,1.68,0,0,0,.08-.24,2.11,2.11,0,0,0,0-.34c0-.16,0-.3,0-.43s0-.24,0-.35,0-.18.07-.2a3.72,3.72,0,0,1,.68,0q.6,0,.18,0h-.71c-.18,0-.3,0-.35-.11a.37.37,0,0,0-.17-.16.53.53,0,0,0-.26,0,.58.58,0,0,0-.26.13Zm.28.89c.09.1.1.27,0,.51a.83.83,0,0,1-.21.48.27.27,0,0,1-.2.09.24.24,0,0,1-.13-.12.54.54,0,0,1,0-.38,1.06,1.06,0,0,1,.22-.5c.13-.15.23-.18.31-.08Zm1.76-1.06a.48.48,0,0,0-.17.13l-.1.15a7.63,7.63,0,0,1-.54.59c-.33.35-.39.43-.2.25a4.13,4.13,0,0,1,.48-.39c.13-.08.15,0,.06.25a6.12,6.12,0,0,0-.21.71c0,.23-.08.39-.1.5a.38.38,0,0,0,.06.28.17.17,0,0,0,.21.07.73.73,0,0,0,.29-.26l.41-.52a2.56,2.56,0,0,1,.56-.49.84.84,0,0,1,.4-.18c.06,0,.1.17.12.49a1.89,1.89,0,0,0,.16.7.41.41,0,0,0,.39.22,1.11,1.11,0,0,0,.64-.35,4.57,4.57,0,0,0,.48-.51.77.77,0,0,0,.12-.25s0,0-.1.1A1.53,1.53,0,0,1,153,41a.89.89,0,0,1-.5.19c-.17,0-.26-.17-.26-.53a1.94,1.94,0,0,0-.13-.77.59.59,0,0,0-.3-.29.7.7,0,0,0-.32,0,1.09,1.09,0,0,0-.25.1,2.93,2.93,0,0,0-.39.3,4,4,0,0,0-.46.45c-.12.15-.11.06,0-.27l.34-.71c.07-.14.05-.24-.08-.29A.36.36,0,0,0,150.41,39.16Z"/></g></g></svg>