<svg width="162" height="29" viewBox="0 0 162 29" fill="none" xmlns="http://www.w3.org/2000/svg">
<path d="M18.2731 15.049V14.754C21.7445 14.0467 24.8431 12.0493 26.8847 9.11355L32.434 1.1416H20.3002L11.2686 14.4341V1.1416H0.0868768C0.0361987 6.00012 0 8.07219 0 10.4926C0 13.2612 3.12756 14.331 5.02075 14.7042V15.113C3.14204 15.5714 0.0760172 16.8474 0.0760172 20.0283C0.0760172 22.9001 0.101356 24.4355 0.0868768 28.6649H11.265V15.3724L20.2966 28.6649H32.4304L26.8847 20.6894C24.8468 17.7572 21.7409 15.7634 18.2731 15.0525V15.049Z" fill="#3E1C53" style="fill:#3E1C53;fill:color(display-p3 0.2431 0.1098 0.3255);fill-opacity:1;"/>
<path d="M38.6211 1.1416H44.5295V13.5092L55.5528 1.1416H62.7206L52.602 12.4859L63.3924 28.6767H56.3057L48.429 17.0554L44.5295 21.429V28.6767H38.6211V1.1416Z" fill="#3E1C53" style="fill:#3E1C53;fill:color(display-p3 0.2431 0.1098 0.3255);fill-opacity:1;"/>
<path d="M63.9805 1.10449H69.5344V28.6767H63.9805V1.10449Z" fill="#3E1C53" style="fill:#3E1C53;fill:color(display-p3 0.2431 0.1098 0.3255);fill-opacity:1;"/>
<path d="M87.9408 10.0644C89.504 11.3106 90.2839 13.131 90.2839 15.5187V28.6767H85.4019L84.9697 26.1167C84.2067 27.0353 83.3356 27.731 82.3498 28.2038C81.3639 28.6767 80.189 28.9131 78.825 28.9131C76.5933 28.9131 74.814 28.3896 73.4905 27.3359C72.1637 26.2855 71.502 24.8164 71.502 22.9251C71.502 20.7738 72.2954 19.1189 73.8856 17.9605C75.4724 16.8055 77.7885 16.228 80.8372 16.228H84.8144V15.2047C84.8144 14.286 84.4801 13.5633 83.8117 13.0398C83.1432 12.5163 82.2417 12.2529 81.1141 12.2529C80.064 12.2529 79.2031 12.4758 78.5346 12.9216C77.8661 13.3674 77.4644 13.9719 77.3327 14.7352H71.978C72.1603 12.6616 73.082 11.0506 74.733 9.90906C76.3873 8.76754 78.5785 8.19678 81.3099 8.19678C84.0412 8.19678 86.3843 8.82158 87.9441 10.0678L87.9408 10.0644ZM83.5112 23.6546C84.3519 22.8272 84.784 21.7194 84.811 20.3246V19.9295H80.7562C79.6015 19.9295 78.7034 20.1591 78.0586 20.6185C77.4137 21.0778 77.093 21.7296 77.093 22.5671C77.093 23.2764 77.3631 23.8404 77.8999 24.2625C78.4367 24.6813 79.166 24.8941 80.0843 24.8941C81.5293 24.8941 82.6705 24.4821 83.5112 23.6546Z" fill="#3E1C53" style="fill:#3E1C53;fill:color(display-p3 0.2431 0.1098 0.3255);fill-opacity:1;"/>
<path d="M97.2145 21.939C97.2922 22.8306 97.7277 23.5533 98.5144 24.1038C99.301 24.6543 100.314 24.9313 101.546 24.9313C102.779 24.9313 103.66 24.7421 104.342 24.3605C105.024 23.9789 105.365 23.4351 105.365 22.7259C105.365 22.2024 105.206 21.8073 104.892 21.5438C104.578 21.2804 104.129 21.0913 103.552 20.9731C102.974 20.8549 102.029 20.7164 100.716 20.561C98.9297 20.3246 97.4475 20.0241 96.2658 19.6559C95.0841 19.2878 94.1388 18.7103 93.4298 17.9234C92.7208 17.1365 92.3663 16.0861 92.3663 14.7724C92.3663 13.4586 92.7275 12.2968 93.45 11.287C94.1726 10.2772 95.1888 9.49366 96.5022 8.94316C97.8155 8.39266 99.3247 8.11572 101.03 8.11572C103.785 8.14274 106.01 8.73377 107.704 9.8888C109.399 11.0438 110.311 12.6447 110.443 14.6947H105.166C105.088 13.9348 104.686 13.31 103.964 12.8237C103.241 12.3373 102.316 12.0942 101.188 12.0942C100.138 12.0942 99.2909 12.2901 98.6494 12.6852C98.0046 13.0803 97.6838 13.6038 97.6838 14.2624C97.6838 14.7352 97.8526 15.0898 98.197 15.3262C98.538 15.5627 98.9837 15.7349 99.5374 15.8396C100.088 15.9443 101.006 16.0625 102.292 16.1942C105.024 16.5083 107.117 17.0926 108.572 17.947C110.031 18.8015 110.757 20.2638 110.757 22.3375C110.757 23.6513 110.368 24.8063 109.595 25.8026C108.822 26.8023 107.745 27.5689 106.367 28.1059C104.99 28.6429 103.393 28.9131 101.583 28.9131C98.7744 28.9131 96.4886 28.2883 94.733 27.0421C92.974 25.7958 92.0422 24.0937 91.9375 21.9424H97.2145V21.939Z" fill="#3E1C53" style="fill:#3E1C53;fill:color(display-p3 0.2431 0.1098 0.3255);fill-opacity:1;"/>
<path d="M116.984 21.939C117.062 22.8306 117.497 23.5533 118.284 24.1038C119.071 24.6543 120.083 24.9313 121.316 24.9313C122.548 24.9313 123.429 24.7421 124.111 24.3605C124.793 23.9789 125.134 23.4351 125.134 22.7259C125.134 22.2024 124.976 21.8073 124.662 21.5438C124.348 21.2804 123.899 21.0913 123.321 20.9731C122.744 20.8549 121.799 20.7164 120.485 20.561C118.699 20.3246 117.217 20.0241 116.035 19.6559C114.854 19.2878 113.908 18.7103 113.199 17.9234C112.49 17.1365 112.136 16.0861 112.136 14.7724C112.136 13.4586 112.497 12.2968 113.22 11.287C113.942 10.2772 114.958 9.49366 116.272 8.94316C117.585 8.39266 119.094 8.11572 120.799 8.11572C123.554 8.14274 125.779 8.73377 127.474 9.8888C129.169 11.0438 130.08 12.6447 130.212 14.6947H124.935C124.857 13.9348 124.456 13.31 123.733 12.8237C123.011 12.3373 122.086 12.0942 120.958 12.0942C119.908 12.0942 119.06 12.2901 118.419 12.6852C117.774 13.0803 117.453 13.6038 117.453 14.2624C117.453 14.7352 117.622 15.0898 117.967 15.3262C118.308 15.5627 118.753 15.7349 119.307 15.8396C119.857 15.9443 120.776 16.0625 122.062 16.1942C124.793 16.5083 126.887 17.0926 128.342 17.947C129.8 18.8015 130.526 20.2638 130.526 22.3375C130.526 23.6513 130.138 24.8063 129.365 25.8026C128.592 26.8023 127.514 27.5689 126.137 28.1059C124.759 28.6429 123.163 28.9131 121.353 28.9131C118.544 28.9131 116.258 28.2883 114.503 27.0421C112.744 25.7958 111.812 24.0937 111.707 21.9424H116.984V21.939Z" fill="#3E1C53" style="fill:#3E1C53;fill:color(display-p3 0.2431 0.1098 0.3255);fill-opacity:1;"/>
<path d="M137.696 0.88485C138.3 1.47588 138.6 2.21888 138.6 3.11049C138.6 4.00209 138.3 4.75185 137.696 5.35638C137.091 5.96092 136.332 6.2615 135.413 6.2615C134.495 6.2615 133.725 5.96092 133.111 5.35638C132.493 4.75185 132.186 4.00547 132.186 3.11049C132.186 2.2155 132.493 1.47588 133.111 0.88485C133.728 0.293824 134.495 0 135.413 0C136.332 0 137.095 0.293824 137.696 0.88485ZM132.614 8.42972H138.168V28.6766H132.614V8.42972Z" fill="#3E1C53" style="fill:#3E1C53;fill:color(display-p3 0.2431 0.1098 0.3255);fill-opacity:1;"/>
<path d="M140.924 1.10449H146.478V17.0588L154.432 8.43321H160.654L153.45 16.3496L161.049 28.6801H154.631L149.513 20.4868L146.481 23.756V28.6801H140.927V1.10449H140.924Z" fill="#3E1C53" style="fill:#3E1C53;fill:color(display-p3 0.2431 0.1098 0.3255);fill-opacity:1;"/>
</svg>
