<svg width="84" height="48" viewBox="0 0 84 48" fill="none" xmlns="http://www.w3.org/2000/svg">
  <ellipse cx="42" cy="24" rx="33" ry="17" fill="#0F172A" opacity="0.16"/>
  <path d="M22 14C27 9 34 6 42 6C50 6 57 9 62 14L69 20V29L62 34C57 39 50 42 42 42C34 42 27 39 22 34L15 29V20L22 14Z" fill="#2F6FAF" stroke="#123B63" stroke-width="2"/>
  <path d="M30 12C33 10 37 9 42 9C47 9 51 10 54 12L58 16V31L54 36C51 38 47 39 42 39C37 39 33 38 30 36L26 31V16L30 12Z" fill="#C8D6E5" opacity="0.82"/>
  <rect x="38" y="11" width="8" height="26" rx="3" fill="#173753" opacity="0.5"/>
  <circle cx="21" cy="20" r="3" fill="#F8FAFC"/>
  <circle cx="63" cy="20" r="3" fill="#F8FAFC"/>
  <circle cx="21" cy="28" r="3" fill="#F8FAFC"/>
  <circle cx="63" cy="28" r="3" fill="#F8FAFC"/>
</svg>