<svg width="220" height="220" viewBox="0 0 220 220" fill="none" xmlns="http://www.w3.org/2000/svg">
  <g opacity="0.72" stroke="#D6D6DA" stroke-width="1.4" stroke-linecap="round">
    <path d="M220 37C183 30 152 46 128 73C102 101 78 121 39 131"/>
    <path d="M220 52C183 44 154 61 130 87C105 114 83 136 44 148"/>
    <path d="M220 68C183 59 155 78 132 102C109 127 88 149 50 164"/>
    <path d="M218 84C184 75 158 92 136 116C116 139 94 164 59 182"/>
  </g>
  <g opacity="0.55" stroke="#D1D5DB" stroke-width="2" stroke-linecap="round" stroke-linejoin="round">
    <path d="M150 132C158 122 173 118 184 124C195 129 200 143 196 154C192 165 179 172 168 170C156 168 147 156 150 144C153 133 165 126 176 128"/>
    <path d="M136 176C146 165 164 159 181 162"/>
    <path d="M60 40C74 28 96 28 110 41"/>
    <path d="M54 40C66 64 103 64 116 40"/>
    <path d="M76 69V90"/>
    <path d="M94 69V90"/>
  </g>
</svg>