<svg width="260" height="180" viewBox="0 0 260 180" fill="none" xmlns="http://www.w3.org/2000/svg">
  <g opacity="0.78" stroke="#CFCFD3" stroke-width="1.4" stroke-linecap="round">
    <path d="M3 134C36 104 70 90 105 91C142 93 176 116 214 113C228 112 241 107 257 98"/>
    <path d="M1 144C37 114 70 101 105 102C143 103 177 127 215 124C228 123 242 118 259 109"/>
    <path d="M0 155C39 124 70 112 105 112C144 114 179 137 216 134C229 133 243 128 260 120"/>
    <path d="M7 165C42 135 74 123 107 123C146 124 182 147 219 145C233 144 246 138 260 131"/>
    <path d="M27 117C58 92 92 76 126 73C163 70 197 85 250 64"/>
  </g>
</svg>