<svg width="320" height="210" viewBox="0 0 320 210" fill="none" xmlns="http://www.w3.org/2000/svg">
  <defs>
    <linearGradient id="wood" x1="0" y1="0" x2="1" y2="1">
      <stop stop-color="#E5CBA4"/>
      <stop offset="1" stop-color="#B8895A"/>
    </linearGradient>
    <linearGradient id="steel" x1="0" y1="0" x2="1" y2="1">
      <stop stop-color="#E5ECF3"/>
      <stop offset="1" stop-color="#A8B3C2"/>
    </linearGradient>
  </defs>
  <path d="M115 92C140 78 165 84 190 96C225 113 251 144 286 147" stroke="#D63B4C" stroke-width="4" stroke-linecap="round"/>
  <path d="M87 42C146 55 153 112 201 122C246 131 265 101 300 110" stroke="#356BA8" stroke-width="5" stroke-linecap="round"/>
  <path d="M115 18C146 40 159 61 157 100C156 133 184 156 219 171" stroke="#F3F0E8" stroke-width="7" stroke-linecap="round"/>
  <path d="M95 102C126 115 143 138 151 173" stroke="#8DA1C4" stroke-width="3.5" stroke-linecap="round"/>
  <path d="M227 40C204 66 188 97 193 131C198 165 215 186 245 194" stroke="#D63B4C" stroke-width="3.5" stroke-linecap="round"/>
  <g transform="translate(26 8)">
    <ellipse cx="32" cy="23" rx="20" ry="14" fill="url(#wood)" stroke="#8A5E35" stroke-width="2"/>
    <rect x="14" y="23" width="36" height="58" rx="8" fill="url(#steel)" stroke="#7B8794" stroke-width="2"/>
    <ellipse cx="32" cy="81" rx="20" ry="14" fill="url(#wood)" stroke="#8A5E35" stroke-width="2"/>
    <path d="M18 41C27 33 37 33 46 41" stroke="#356BA8" stroke-width="5" stroke-linecap="round"/>
    <path d="M18 50C27 42 37 42 46 50" stroke="#356BA8" stroke-width="5" stroke-linecap="round"/>
    <path d="M18 59C27 51 37 51 46 59" stroke="#356BA8" stroke-width="5" stroke-linecap="round"/>
  </g>
  <g transform="translate(110 0) rotate(8 34 48)">
    <ellipse cx="34" cy="24" rx="22" ry="15" fill="url(#wood)" stroke="#8A5E35" stroke-width="2"/>
    <rect x="14" y="24" width="40" height="63" rx="9" fill="url(#steel)" stroke="#7B8794" stroke-width="2"/>
    <ellipse cx="34" cy="87" rx="22" ry="15" fill="url(#wood)" stroke="#8A5E35" stroke-width="2"/>
    <path d="M19 40C29 32 40 32 49 40" stroke="#F3F0E8" stroke-width="6" stroke-linecap="round"/>
    <path d="M19 50C29 42 40 42 49 50" stroke="#F3F0E8" stroke-width="6" stroke-linecap="round"/>
    <path d="M19 60C29 52 40 52 49 60" stroke="#F3F0E8" stroke-width="6" stroke-linecap="round"/>
  </g>
  <g transform="translate(206 10) rotate(-12 30 40)">
    <ellipse cx="30" cy="20" rx="18" ry="13" fill="url(#wood)" stroke="#8A5E35" stroke-width="2"/>
    <rect x="14" y="20" width="32" height="52" rx="8" fill="url(#steel)" stroke="#7B8794" stroke-width="2"/>
    <ellipse cx="30" cy="72" rx="18" ry="13" fill="url(#wood)" stroke="#8A5E35" stroke-width="2"/>
    <path d="M18 35C25 30 35 30 42 35" stroke="#D63B4C" stroke-width="4" stroke-linecap="round"/>
    <path d="M18 43C25 38 35 38 42 43" stroke="#D63B4C" stroke-width="4" stroke-linecap="round"/>
    <path d="M18 51C25 46 35 46 42 51" stroke="#D63B4C" stroke-width="4" stroke-linecap="round"/>
  </g>
</svg>